<mxfile host="Electron" agent="Mozilla/5.0 (Macintosh; Intel Mac OS X 10_15_7) AppleWebKit/537.36 (KHTML, like Gecko) draw.io/24.7.8 Chrome/128.0.6613.36 Electron/32.0.1 Safari/537.36" version="24.7.8">
  <diagram name="Page-1" id="YZ9LpF4PZEQMI4qAyFbF">
    <mxGraphModel dx="6488" dy="3166" grid="1" gridSize="10" guides="1" tooltips="1" connect="1" arrows="1" fold="1" page="1" pageScale="1" pageWidth="827" pageHeight="1169" math="0" shadow="0">
      <root>
        <mxCell id="0" />
        <mxCell id="1" parent="0" />
        <mxCell id="vsVX-z01l6uyjI2hk9Wb-15" value="" style="rounded=0;whiteSpace=wrap;html=1;fillColor=#d5e8d4;strokeColor=#82b366;" vertex="1" parent="1">
          <mxGeometry x="-1760" y="-818" width="610" height="480" as="geometry" />
        </mxCell>
        <mxCell id="vsVX-z01l6uyjI2hk9Wb-6" value="" style="endArrow=classic;html=1;rounded=0;" edge="1" parent="1">
          <mxGeometry width="50" height="50" relative="1" as="geometry">
            <mxPoint x="-1850" y="-228" as="sourcePoint" />
            <mxPoint x="-1850" y="-798" as="targetPoint" />
          </mxGeometry>
        </mxCell>
        <mxCell id="vsVX-z01l6uyjI2hk9Wb-7" value="" style="endArrow=classic;html=1;rounded=0;" edge="1" parent="1">
          <mxGeometry width="50" height="50" relative="1" as="geometry">
            <mxPoint x="-1880" y="-258" as="sourcePoint" />
            <mxPoint x="-1170" y="-258" as="targetPoint" />
          </mxGeometry>
        </mxCell>
        <mxCell id="vsVX-z01l6uyjI2hk9Wb-11" value="&lt;font style=&quot;font-size: 16px;&quot;&gt;2024-09-02 11:25:01&lt;/font&gt;" style="text;html=1;align=center;verticalAlign=middle;resizable=0;points=[];autosize=1;strokeColor=none;fillColor=none;rotation=90;" vertex="1" parent="1">
          <mxGeometry x="-1830" y="-190" width="170" height="30" as="geometry" />
        </mxCell>
        <mxCell id="vsVX-z01l6uyjI2hk9Wb-12" value="&lt;font style=&quot;font-size: 16px;&quot;&gt;2024-09-02 11:25:01&lt;/font&gt;" style="text;html=1;align=center;verticalAlign=middle;resizable=0;points=[];autosize=1;strokeColor=none;fillColor=none;" vertex="1" parent="1">
          <mxGeometry x="-2017" y="-368" width="170" height="30" as="geometry" />
        </mxCell>
        <mxCell id="vsVX-z01l6uyjI2hk9Wb-16" value="" style="endArrow=none;dashed=1;html=1;strokeWidth=4;rounded=0;exitX=0;exitY=1;exitDx=0;exitDy=0;" edge="1" parent="1" source="vsVX-z01l6uyjI2hk9Wb-15">
          <mxGeometry width="50" height="50" relative="1" as="geometry">
            <mxPoint x="-1580" y="-398" as="sourcePoint" />
            <mxPoint x="-1970" y="-338" as="targetPoint" />
            <Array as="points" />
          </mxGeometry>
        </mxCell>
        <mxCell id="vsVX-z01l6uyjI2hk9Wb-17" value="" style="endArrow=none;dashed=1;html=1;strokeWidth=4;rounded=0;exitX=0;exitY=1;exitDx=0;exitDy=0;entryX=0.976;entryY=0.995;entryDx=0;entryDy=0;entryPerimeter=0;" edge="1" parent="1" source="vsVX-z01l6uyjI2hk9Wb-15" target="vsVX-z01l6uyjI2hk9Wb-11">
          <mxGeometry width="50" height="50" relative="1" as="geometry">
            <mxPoint x="-1750" y="-328" as="sourcePoint" />
            <mxPoint x="-1760" y="-188" as="targetPoint" />
            <Array as="points">
              <mxPoint x="-1760" y="-278" />
            </Array>
          </mxGeometry>
        </mxCell>
        <mxCell id="vsVX-z01l6uyjI2hk9Wb-18" value="" style="endArrow=none;dashed=1;html=1;strokeWidth=4;rounded=0;exitX=0;exitY=1;exitDx=0;exitDy=0;entryX=0.976;entryY=0.995;entryDx=0;entryDy=0;entryPerimeter=0;" edge="1" parent="1" source="vsVX-z01l6uyjI2hk9Wb-23">
          <mxGeometry width="50" height="50" relative="1" as="geometry">
            <mxPoint x="-1640" y="-338" as="sourcePoint" />
            <mxPoint x="-1640" y="-131" as="targetPoint" />
          </mxGeometry>
        </mxCell>
        <mxCell id="vsVX-z01l6uyjI2hk9Wb-21" value="&lt;font style=&quot;font-size: 16px;&quot;&gt;2024-09-02 11:25:01&lt;/font&gt;" style="text;html=1;align=center;verticalAlign=middle;resizable=0;points=[];autosize=1;strokeColor=none;fillColor=none;rotation=90;" vertex="1" parent="1">
          <mxGeometry x="-1710" y="-190" width="170" height="30" as="geometry" />
        </mxCell>
        <mxCell id="vsVX-z01l6uyjI2hk9Wb-22" value="" style="endArrow=none;dashed=1;html=1;strokeWidth=4;rounded=0;exitX=0;exitY=1;exitDx=0;exitDy=0;" edge="1" parent="1" source="vsVX-z01l6uyjI2hk9Wb-23">
          <mxGeometry width="50" height="50" relative="1" as="geometry">
            <mxPoint x="-1800" y="-458" as="sourcePoint" />
            <mxPoint x="-1970" y="-458" as="targetPoint" />
            <Array as="points" />
          </mxGeometry>
        </mxCell>
        <mxCell id="vsVX-z01l6uyjI2hk9Wb-23" value="" style="rounded=0;whiteSpace=wrap;html=1;fillColor=#dae8fc;strokeColor=#6c8ebf;" vertex="1" parent="1">
          <mxGeometry x="-1640" y="-818" width="490" height="360" as="geometry" />
        </mxCell>
        <mxCell id="vsVX-z01l6uyjI2hk9Wb-24" value="&lt;font style=&quot;font-size: 16px;&quot;&gt;2024-09-02 11:25:01&lt;/font&gt;" style="text;html=1;align=center;verticalAlign=middle;resizable=0;points=[];autosize=1;strokeColor=none;fillColor=none;" vertex="1" parent="1">
          <mxGeometry x="-2017" y="-488" width="170" height="30" as="geometry" />
        </mxCell>
        <mxCell id="vsVX-z01l6uyjI2hk9Wb-25" value="" style="rounded=0;whiteSpace=wrap;html=1;fillColor=#d5e8d4;strokeColor=#82b366;" vertex="1" parent="1">
          <mxGeometry x="-2840" y="-806.88" width="610" height="480" as="geometry" />
        </mxCell>
        <mxCell id="vsVX-z01l6uyjI2hk9Wb-26" value="" style="endArrow=classic;html=1;rounded=0;" edge="1" parent="1">
          <mxGeometry width="50" height="50" relative="1" as="geometry">
            <mxPoint x="-2930" y="-216.88" as="sourcePoint" />
            <mxPoint x="-2930" y="-786.88" as="targetPoint" />
          </mxGeometry>
        </mxCell>
        <mxCell id="vsVX-z01l6uyjI2hk9Wb-27" value="" style="endArrow=classic;html=1;rounded=0;" edge="1" parent="1">
          <mxGeometry width="50" height="50" relative="1" as="geometry">
            <mxPoint x="-2960" y="-246.88" as="sourcePoint" />
            <mxPoint x="-2250" y="-246.88" as="targetPoint" />
          </mxGeometry>
        </mxCell>
        <mxCell id="vsVX-z01l6uyjI2hk9Wb-30" value="&lt;font style=&quot;font-size: 15px;&quot;&gt;2024-09-02 11:25:01&lt;/font&gt;" style="text;html=1;align=center;verticalAlign=middle;resizable=0;points=[];autosize=1;strokeColor=none;fillColor=none;rotation=90;strokeWidth=4;" vertex="1" parent="1">
          <mxGeometry x="-2900" y="-178" width="160" height="30" as="geometry" />
        </mxCell>
        <mxCell id="vsVX-z01l6uyjI2hk9Wb-31" value="&lt;font style=&quot;font-size: 16px;&quot;&gt;2024-09-02 11:25:01&lt;/font&gt;" style="text;html=1;align=center;verticalAlign=middle;resizable=0;points=[];autosize=1;strokeColor=none;fillColor=none;" vertex="1" parent="1">
          <mxGeometry x="-3097" y="-356.88" width="170" height="30" as="geometry" />
        </mxCell>
        <mxCell id="vsVX-z01l6uyjI2hk9Wb-32" value="" style="endArrow=none;dashed=1;html=1;strokeWidth=4;rounded=0;exitX=0;exitY=1;exitDx=0;exitDy=0;" edge="1" parent="1" source="vsVX-z01l6uyjI2hk9Wb-25">
          <mxGeometry width="50" height="50" relative="1" as="geometry">
            <mxPoint x="-2660" y="-386.88" as="sourcePoint" />
            <mxPoint x="-3050" y="-326.88" as="targetPoint" />
            <Array as="points" />
          </mxGeometry>
        </mxCell>
        <mxCell id="vsVX-z01l6uyjI2hk9Wb-33" value="" style="endArrow=none;dashed=1;html=1;strokeWidth=4;rounded=0;exitX=0;exitY=1;exitDx=0;exitDy=0;entryX=0.976;entryY=0.995;entryDx=0;entryDy=0;entryPerimeter=0;" edge="1" parent="1" source="vsVX-z01l6uyjI2hk9Wb-25" target="vsVX-z01l6uyjI2hk9Wb-30">
          <mxGeometry width="50" height="50" relative="1" as="geometry">
            <mxPoint x="-2830" y="-316.88" as="sourcePoint" />
            <mxPoint x="-2840" y="-176.88" as="targetPoint" />
            <Array as="points">
              <mxPoint x="-2840" y="-266.88" />
            </Array>
          </mxGeometry>
        </mxCell>
        <mxCell id="vsVX-z01l6uyjI2hk9Wb-39" value="&lt;font style=&quot;font-size: 30px;&quot;&gt;Insert&lt;/font&gt;" style="text;html=1;align=center;verticalAlign=middle;resizable=0;points=[];autosize=1;strokeColor=none;fillColor=none;" vertex="1" parent="1">
          <mxGeometry x="-2625" y="-900" width="100" height="50" as="geometry" />
        </mxCell>
        <mxCell id="vsVX-z01l6uyjI2hk9Wb-40" value="&lt;font style=&quot;font-size: 30px;&quot;&gt;Update&lt;/font&gt;" style="text;html=1;align=center;verticalAlign=middle;resizable=0;points=[];autosize=1;strokeColor=none;fillColor=none;" vertex="1" parent="1">
          <mxGeometry x="-1563" y="-910" width="120" height="50" as="geometry" />
        </mxCell>
        <mxCell id="vsVX-z01l6uyjI2hk9Wb-43" value="&lt;font size=&quot;1&quot; style=&quot;&quot;&gt;&lt;i style=&quot;font-size: 27px;&quot;&gt;1st insert (the original one)&lt;/i&gt;&lt;/font&gt;" style="text;html=1;align=center;verticalAlign=middle;resizable=0;points=[];autosize=1;strokeColor=none;fillColor=none;" vertex="1" parent="1">
          <mxGeometry x="-1595" y="-430" width="340" height="50" as="geometry" />
        </mxCell>
        <mxCell id="vsVX-z01l6uyjI2hk9Wb-45" value="" style="endArrow=none;dashed=1;html=1;dashPattern=1 3;strokeWidth=4;rounded=0;" edge="1" parent="1">
          <mxGeometry width="50" height="50" relative="1" as="geometry">
            <mxPoint x="-2120" y="-458" as="sourcePoint" />
            <mxPoint x="-1000" y="-458" as="targetPoint" />
          </mxGeometry>
        </mxCell>
        <mxCell id="vsVX-z01l6uyjI2hk9Wb-46" value="" style="endArrow=none;dashed=1;html=1;dashPattern=1 3;strokeWidth=4;rounded=0;" edge="1" parent="1">
          <mxGeometry width="50" height="50" relative="1" as="geometry">
            <mxPoint x="-2120" y="-338" as="sourcePoint" />
            <mxPoint x="-1000" y="-338" as="targetPoint" />
          </mxGeometry>
        </mxCell>
        <mxCell id="vsVX-z01l6uyjI2hk9Wb-47" value="" style="endArrow=none;dashed=1;html=1;dashPattern=1 3;strokeWidth=4;rounded=0;" edge="1" parent="1">
          <mxGeometry width="50" height="50" relative="1" as="geometry">
            <mxPoint x="-1760" y="-1000" as="sourcePoint" />
            <mxPoint x="-1760" y="20" as="targetPoint" />
          </mxGeometry>
        </mxCell>
        <mxCell id="vsVX-z01l6uyjI2hk9Wb-48" value="" style="endArrow=none;dashed=1;html=1;dashPattern=1 3;strokeWidth=4;rounded=0;" edge="1" parent="1">
          <mxGeometry width="50" height="50" relative="1" as="geometry">
            <mxPoint x="-1640" y="-1010" as="sourcePoint" />
            <mxPoint x="-1640" y="20" as="targetPoint" />
          </mxGeometry>
        </mxCell>
        <mxCell id="vsVX-z01l6uyjI2hk9Wb-50" value="&lt;font size=&quot;1&quot; style=&quot;&quot;&gt;&lt;i style=&quot;font-size: 27px;&quot;&gt;2nd insert&lt;/i&gt;&lt;/font&gt;" style="text;html=1;align=center;verticalAlign=middle;resizable=0;points=[];autosize=1;strokeColor=none;fillColor=none;rotation=90;" vertex="1" parent="1">
          <mxGeometry x="-1760" y="-670" width="140" height="50" as="geometry" />
        </mxCell>
        <mxCell id="vsVX-z01l6uyjI2hk9Wb-51" value="&lt;font size=&quot;1&quot; style=&quot;&quot;&gt;&lt;i style=&quot;font-size: 27px;&quot;&gt;3rd insert&lt;/i&gt;&lt;/font&gt;" style="text;html=1;align=center;verticalAlign=middle;resizable=0;points=[];autosize=1;strokeColor=none;fillColor=none;" vertex="1" parent="1">
          <mxGeometry x="-1495" y="-670" width="140" height="50" as="geometry" />
        </mxCell>
        <mxCell id="vsVX-z01l6uyjI2hk9Wb-52" value="" style="rounded=0;whiteSpace=wrap;html=1;fillColor=#d5e8d4;strokeColor=#82b366;" vertex="1" parent="1">
          <mxGeometry x="-430" y="-828" width="610" height="480" as="geometry" />
        </mxCell>
        <mxCell id="vsVX-z01l6uyjI2hk9Wb-53" value="" style="endArrow=classic;html=1;rounded=0;" edge="1" parent="1">
          <mxGeometry width="50" height="50" relative="1" as="geometry">
            <mxPoint x="-520" y="-238" as="sourcePoint" />
            <mxPoint x="-520" y="-808" as="targetPoint" />
          </mxGeometry>
        </mxCell>
        <mxCell id="vsVX-z01l6uyjI2hk9Wb-54" value="" style="endArrow=classic;html=1;rounded=0;" edge="1" parent="1">
          <mxGeometry width="50" height="50" relative="1" as="geometry">
            <mxPoint x="-550" y="-268" as="sourcePoint" />
            <mxPoint x="160" y="-268" as="targetPoint" />
          </mxGeometry>
        </mxCell>
        <mxCell id="vsVX-z01l6uyjI2hk9Wb-55" value="&lt;font style=&quot;font-size: 24px;&quot;&gt;Effective Time /&lt;/font&gt;&lt;div&gt;&lt;font style=&quot;font-size: 24px;&quot;&gt;Insertion Time&lt;/font&gt;&lt;/div&gt;" style="text;html=1;align=center;verticalAlign=middle;resizable=0;points=[];autosize=1;strokeColor=none;fillColor=none;" vertex="1" parent="1">
          <mxGeometry x="50" y="-265" width="190" height="70" as="geometry" />
        </mxCell>
        <mxCell id="vsVX-z01l6uyjI2hk9Wb-56" value="&lt;font style=&quot;font-size: 24px;&quot;&gt;Asserted Time /&lt;/font&gt;&lt;div&gt;&lt;font style=&quot;font-size: 24px;&quot;&gt;Business Time&lt;/font&gt;&lt;/div&gt;" style="text;html=1;align=center;verticalAlign=middle;resizable=0;points=[];autosize=1;strokeColor=none;fillColor=none;" vertex="1" parent="1">
          <mxGeometry x="-715" y="-831.88" width="190" height="70" as="geometry" />
        </mxCell>
        <mxCell id="vsVX-z01l6uyjI2hk9Wb-57" value="&lt;font style=&quot;font-size: 16px;&quot;&gt;2024-09-16 10:56:04&lt;/font&gt;" style="text;html=1;align=center;verticalAlign=middle;resizable=0;points=[];autosize=1;strokeColor=none;fillColor=none;rotation=90;" vertex="1" parent="1">
          <mxGeometry x="-500" y="-200" width="170" height="30" as="geometry" />
        </mxCell>
        <mxCell id="vsVX-z01l6uyjI2hk9Wb-58" value="&lt;font style=&quot;font-size: 16px;&quot;&gt;2024-09-16 10:56:04&lt;/font&gt;" style="text;html=1;align=center;verticalAlign=middle;resizable=0;points=[];autosize=1;strokeColor=none;fillColor=none;" vertex="1" parent="1">
          <mxGeometry x="-687" y="-378" width="170" height="30" as="geometry" />
        </mxCell>
        <mxCell id="vsVX-z01l6uyjI2hk9Wb-59" value="" style="endArrow=none;dashed=1;html=1;strokeWidth=4;rounded=0;exitX=0;exitY=1;exitDx=0;exitDy=0;" edge="1" parent="1" source="vsVX-z01l6uyjI2hk9Wb-52">
          <mxGeometry width="50" height="50" relative="1" as="geometry">
            <mxPoint x="-250" y="-408" as="sourcePoint" />
            <mxPoint x="-640" y="-348" as="targetPoint" />
            <Array as="points" />
          </mxGeometry>
        </mxCell>
        <mxCell id="vsVX-z01l6uyjI2hk9Wb-60" value="" style="endArrow=none;dashed=1;html=1;strokeWidth=4;rounded=0;exitX=0;exitY=1;exitDx=0;exitDy=0;entryX=0.976;entryY=0.995;entryDx=0;entryDy=0;entryPerimeter=0;" edge="1" parent="1" source="vsVX-z01l6uyjI2hk9Wb-52" target="vsVX-z01l6uyjI2hk9Wb-57">
          <mxGeometry width="50" height="50" relative="1" as="geometry">
            <mxPoint x="-420" y="-338" as="sourcePoint" />
            <mxPoint x="-430" y="-198" as="targetPoint" />
            <Array as="points">
              <mxPoint x="-430" y="-288" />
            </Array>
          </mxGeometry>
        </mxCell>
        <mxCell id="vsVX-z01l6uyjI2hk9Wb-61" value="" style="endArrow=none;dashed=1;html=1;strokeWidth=4;rounded=0;exitX=0;exitY=1;exitDx=0;exitDy=0;entryX=0.976;entryY=0.995;entryDx=0;entryDy=0;entryPerimeter=0;" edge="1" parent="1" source="vsVX-z01l6uyjI2hk9Wb-64">
          <mxGeometry width="50" height="50" relative="1" as="geometry">
            <mxPoint x="-310" y="-348" as="sourcePoint" />
            <mxPoint x="-310" y="-141" as="targetPoint" />
          </mxGeometry>
        </mxCell>
        <mxCell id="vsVX-z01l6uyjI2hk9Wb-62" value="&lt;font style=&quot;font-size: 16px;&quot;&gt;2024-09-16 10:56:23&lt;/font&gt;" style="text;html=1;align=center;verticalAlign=middle;resizable=0;points=[];autosize=1;strokeColor=none;fillColor=none;rotation=90;" vertex="1" parent="1">
          <mxGeometry x="-380" y="-200" width="170" height="30" as="geometry" />
        </mxCell>
        <mxCell id="vsVX-z01l6uyjI2hk9Wb-63" value="" style="endArrow=none;dashed=1;html=1;strokeWidth=4;rounded=0;exitX=0;exitY=1;exitDx=0;exitDy=0;" edge="1" parent="1" source="vsVX-z01l6uyjI2hk9Wb-64">
          <mxGeometry width="50" height="50" relative="1" as="geometry">
            <mxPoint x="-470" y="-468" as="sourcePoint" />
            <mxPoint x="-640" y="-468" as="targetPoint" />
            <Array as="points" />
          </mxGeometry>
        </mxCell>
        <mxCell id="vsVX-z01l6uyjI2hk9Wb-64" value="" style="rounded=0;whiteSpace=wrap;html=1;fillColor=#dae8fc;strokeColor=#6c8ebf;" vertex="1" parent="1">
          <mxGeometry x="-310" y="-828" width="490" height="360" as="geometry" />
        </mxCell>
        <mxCell id="vsVX-z01l6uyjI2hk9Wb-65" value="&lt;font style=&quot;font-size: 16px;&quot;&gt;2024-09-16 10:56:23&lt;/font&gt;" style="text;html=1;align=center;verticalAlign=middle;resizable=0;points=[];autosize=1;strokeColor=none;fillColor=none;" vertex="1" parent="1">
          <mxGeometry x="-687" y="-498" width="170" height="30" as="geometry" />
        </mxCell>
        <mxCell id="vsVX-z01l6uyjI2hk9Wb-66" value="&lt;font style=&quot;font-size: 30px;&quot;&gt;Correction&lt;/font&gt;" style="text;html=1;align=center;verticalAlign=middle;resizable=0;points=[];autosize=1;strokeColor=none;fillColor=none;" vertex="1" parent="1">
          <mxGeometry x="-253" y="-920" width="160" height="50" as="geometry" />
        </mxCell>
        <mxCell id="vsVX-z01l6uyjI2hk9Wb-67" value="&lt;font size=&quot;1&quot; style=&quot;&quot;&gt;&lt;i style=&quot;font-size: 27px;&quot;&gt;1st insert&lt;/i&gt;&lt;/font&gt;" style="text;html=1;align=center;verticalAlign=middle;resizable=0;points=[];autosize=1;strokeColor=none;fillColor=none;" vertex="1" parent="1">
          <mxGeometry x="-238" y="-406.88" width="130" height="50" as="geometry" />
        </mxCell>
        <mxCell id="vsVX-z01l6uyjI2hk9Wb-68" value="" style="endArrow=none;dashed=1;html=1;dashPattern=1 3;strokeWidth=4;rounded=0;" edge="1" parent="1">
          <mxGeometry width="50" height="50" relative="1" as="geometry">
            <mxPoint x="-430" y="-1010" as="sourcePoint" />
            <mxPoint x="-430" y="10" as="targetPoint" />
          </mxGeometry>
        </mxCell>
        <mxCell id="vsVX-z01l6uyjI2hk9Wb-69" value="" style="endArrow=none;dashed=1;html=1;dashPattern=1 3;strokeWidth=4;rounded=0;" edge="1" parent="1">
          <mxGeometry width="50" height="50" relative="1" as="geometry">
            <mxPoint x="-310" y="-1020" as="sourcePoint" />
            <mxPoint x="-310" y="10" as="targetPoint" />
          </mxGeometry>
        </mxCell>
        <mxCell id="vsVX-z01l6uyjI2hk9Wb-70" value="&lt;font size=&quot;1&quot; style=&quot;&quot;&gt;&lt;i style=&quot;font-size: 27px;&quot;&gt;2nd insert&lt;/i&gt;&lt;/font&gt;" style="text;html=1;align=center;verticalAlign=middle;resizable=0;points=[];autosize=1;strokeColor=none;fillColor=none;rotation=90;" vertex="1" parent="1">
          <mxGeometry x="-430" y="-680" width="140" height="50" as="geometry" />
        </mxCell>
        <mxCell id="vsVX-z01l6uyjI2hk9Wb-114" style="edgeStyle=orthogonalEdgeStyle;rounded=0;orthogonalLoop=1;jettySize=auto;html=1;entryX=0;entryY=1;entryDx=0;entryDy=0;strokeWidth=4;" edge="1" parent="1" source="vsVX-z01l6uyjI2hk9Wb-71" target="vsVX-z01l6uyjI2hk9Wb-64">
          <mxGeometry relative="1" as="geometry">
            <Array as="points">
              <mxPoint x="-250" y="-443" />
              <mxPoint x="-250" y="-468" />
            </Array>
          </mxGeometry>
        </mxCell>
        <mxCell id="vsVX-z01l6uyjI2hk9Wb-71" value="&lt;font size=&quot;1&quot; style=&quot;&quot;&gt;&lt;i style=&quot;font-size: 27px;&quot;&gt;3rd insert&lt;/i&gt;&lt;/font&gt;" style="text;html=1;align=center;verticalAlign=middle;resizable=0;points=[];autosize=1;strokeColor=none;fillColor=none;" vertex="1" parent="1">
          <mxGeometry x="-50" y="-468" width="140" height="50" as="geometry" />
        </mxCell>
        <mxCell id="vsVX-z01l6uyjI2hk9Wb-72" value="&lt;font size=&quot;1&quot; style=&quot;&quot;&gt;&lt;i style=&quot;font-size: 27px;&quot;&gt;1st insert&lt;/i&gt;&lt;/font&gt;" style="text;html=1;align=center;verticalAlign=middle;resizable=0;points=[];autosize=1;strokeColor=none;fillColor=none;" vertex="1" parent="1">
          <mxGeometry x="-2600" y="-591.88" width="130" height="50" as="geometry" />
        </mxCell>
        <mxCell id="vsVX-z01l6uyjI2hk9Wb-73" value="&lt;font style=&quot;font-size: 24px;&quot;&gt;Effective Time /&lt;/font&gt;&lt;div&gt;&lt;font style=&quot;font-size: 24px;&quot;&gt;Insertion Time&lt;/font&gt;&lt;/div&gt;" style="text;html=1;align=center;verticalAlign=middle;resizable=0;points=[];autosize=1;strokeColor=none;fillColor=none;" vertex="1" parent="1">
          <mxGeometry x="-1300" y="-248" width="190" height="70" as="geometry" />
        </mxCell>
        <mxCell id="vsVX-z01l6uyjI2hk9Wb-74" value="&lt;font style=&quot;font-size: 24px;&quot;&gt;Asserted Time /&lt;/font&gt;&lt;div&gt;&lt;font style=&quot;font-size: 24px;&quot;&gt;Business Time&lt;/font&gt;&lt;/div&gt;" style="text;html=1;align=center;verticalAlign=middle;resizable=0;points=[];autosize=1;strokeColor=none;fillColor=none;" vertex="1" parent="1">
          <mxGeometry x="-2037" y="-821.88" width="190" height="70" as="geometry" />
        </mxCell>
        <mxCell id="vsVX-z01l6uyjI2hk9Wb-75" value="&lt;font style=&quot;font-size: 24px;&quot;&gt;Asserted Time /&lt;/font&gt;&lt;div&gt;&lt;font style=&quot;font-size: 24px;&quot;&gt;Business Time&lt;/font&gt;&lt;/div&gt;" style="text;html=1;align=center;verticalAlign=middle;resizable=0;points=[];autosize=1;strokeColor=none;fillColor=none;" vertex="1" parent="1">
          <mxGeometry x="-3120" y="-818" width="190" height="70" as="geometry" />
        </mxCell>
        <mxCell id="vsVX-z01l6uyjI2hk9Wb-76" value="&lt;font style=&quot;font-size: 24px;&quot;&gt;Effective Time /&lt;/font&gt;&lt;div&gt;&lt;font style=&quot;font-size: 24px;&quot;&gt;Insertion Time&lt;/font&gt;&lt;/div&gt;" style="text;html=1;align=center;verticalAlign=middle;resizable=0;points=[];autosize=1;strokeColor=none;fillColor=none;" vertex="1" parent="1">
          <mxGeometry x="-2390" y="-240" width="190" height="70" as="geometry" />
        </mxCell>
        <mxCell id="vsVX-z01l6uyjI2hk9Wb-77" value="" style="rounded=0;whiteSpace=wrap;html=1;fillColor=#d5e8d4;strokeColor=#82b366;" vertex="1" parent="1">
          <mxGeometry x="-430" y="252" width="610" height="480" as="geometry" />
        </mxCell>
        <mxCell id="vsVX-z01l6uyjI2hk9Wb-78" value="" style="endArrow=classic;html=1;rounded=0;" edge="1" parent="1">
          <mxGeometry width="50" height="50" relative="1" as="geometry">
            <mxPoint x="-520" y="842" as="sourcePoint" />
            <mxPoint x="-520" y="272" as="targetPoint" />
          </mxGeometry>
        </mxCell>
        <mxCell id="vsVX-z01l6uyjI2hk9Wb-79" value="" style="endArrow=classic;html=1;rounded=0;" edge="1" parent="1">
          <mxGeometry width="50" height="50" relative="1" as="geometry">
            <mxPoint x="-550" y="812" as="sourcePoint" />
            <mxPoint x="160" y="812" as="targetPoint" />
          </mxGeometry>
        </mxCell>
        <mxCell id="vsVX-z01l6uyjI2hk9Wb-80" value="&lt;font style=&quot;font-size: 24px;&quot;&gt;Effective Time /&lt;/font&gt;&lt;div&gt;&lt;font style=&quot;font-size: 24px;&quot;&gt;Insertion Time&lt;/font&gt;&lt;/div&gt;" style="text;html=1;align=center;verticalAlign=middle;resizable=0;points=[];autosize=1;strokeColor=none;fillColor=none;" vertex="1" parent="1">
          <mxGeometry x="50" y="815" width="190" height="70" as="geometry" />
        </mxCell>
        <mxCell id="vsVX-z01l6uyjI2hk9Wb-81" value="&lt;font style=&quot;font-size: 24px;&quot;&gt;Asserted Time /&lt;/font&gt;&lt;div&gt;&lt;font style=&quot;font-size: 24px;&quot;&gt;Business Time&lt;/font&gt;&lt;/div&gt;" style="text;html=1;align=center;verticalAlign=middle;resizable=0;points=[];autosize=1;strokeColor=none;fillColor=none;" vertex="1" parent="1">
          <mxGeometry x="-715" y="248.12" width="190" height="70" as="geometry" />
        </mxCell>
        <mxCell id="vsVX-z01l6uyjI2hk9Wb-82" value="&lt;font style=&quot;font-size: 16px;&quot;&gt;2024-09-16 10:56:04&lt;/font&gt;" style="text;html=1;align=center;verticalAlign=middle;resizable=0;points=[];autosize=1;strokeColor=none;fillColor=none;rotation=90;" vertex="1" parent="1">
          <mxGeometry x="-500" y="880" width="170" height="30" as="geometry" />
        </mxCell>
        <mxCell id="vsVX-z01l6uyjI2hk9Wb-83" value="&lt;font style=&quot;font-size: 16px;&quot;&gt;2024-09-16 10:56:04&lt;/font&gt;" style="text;html=1;align=center;verticalAlign=middle;resizable=0;points=[];autosize=1;strokeColor=none;fillColor=none;" vertex="1" parent="1">
          <mxGeometry x="-687" y="702" width="170" height="30" as="geometry" />
        </mxCell>
        <mxCell id="vsVX-z01l6uyjI2hk9Wb-84" value="" style="endArrow=none;dashed=1;html=1;strokeWidth=4;rounded=0;exitX=0;exitY=1;exitDx=0;exitDy=0;" edge="1" parent="1" source="vsVX-z01l6uyjI2hk9Wb-77">
          <mxGeometry width="50" height="50" relative="1" as="geometry">
            <mxPoint x="-250" y="672" as="sourcePoint" />
            <mxPoint x="-640" y="732" as="targetPoint" />
            <Array as="points" />
          </mxGeometry>
        </mxCell>
        <mxCell id="vsVX-z01l6uyjI2hk9Wb-85" value="" style="endArrow=none;dashed=1;html=1;strokeWidth=4;rounded=0;exitX=0;exitY=1;exitDx=0;exitDy=0;entryX=0.976;entryY=0.995;entryDx=0;entryDy=0;entryPerimeter=0;" edge="1" parent="1" source="vsVX-z01l6uyjI2hk9Wb-77" target="vsVX-z01l6uyjI2hk9Wb-82">
          <mxGeometry width="50" height="50" relative="1" as="geometry">
            <mxPoint x="-420" y="742" as="sourcePoint" />
            <mxPoint x="-430" y="882" as="targetPoint" />
            <Array as="points">
              <mxPoint x="-430" y="792" />
            </Array>
          </mxGeometry>
        </mxCell>
        <mxCell id="vsVX-z01l6uyjI2hk9Wb-86" value="" style="endArrow=none;dashed=1;html=1;strokeWidth=4;rounded=0;exitX=0;exitY=1;exitDx=0;exitDy=0;entryX=0.976;entryY=0.995;entryDx=0;entryDy=0;entryPerimeter=0;" edge="1" parent="1">
          <mxGeometry width="50" height="50" relative="1" as="geometry">
            <mxPoint x="-310" y="611.9999999999995" as="sourcePoint" />
            <mxPoint x="-310" y="939" as="targetPoint" />
          </mxGeometry>
        </mxCell>
        <mxCell id="vsVX-z01l6uyjI2hk9Wb-87" value="&lt;font style=&quot;font-size: 16px;&quot;&gt;2024-09-16 10:57:01&lt;/font&gt;" style="text;html=1;align=center;verticalAlign=middle;resizable=0;points=[];autosize=1;strokeColor=none;fillColor=none;rotation=90;" vertex="1" parent="1">
          <mxGeometry x="-380" y="880" width="170" height="30" as="geometry" />
        </mxCell>
        <mxCell id="vsVX-z01l6uyjI2hk9Wb-90" value="&lt;font style=&quot;font-size: 16px;&quot;&gt;2024-09-02 11:25:01&lt;/font&gt;" style="text;html=1;align=center;verticalAlign=middle;resizable=0;points=[];autosize=1;strokeColor=none;fillColor=none;" vertex="1" parent="1">
          <mxGeometry x="-687" y="582" width="170" height="30" as="geometry" />
        </mxCell>
        <mxCell id="vsVX-z01l6uyjI2hk9Wb-91" value="&lt;font style=&quot;font-size: 30px;&quot;&gt;Correction&lt;/font&gt;" style="text;html=1;align=center;verticalAlign=middle;resizable=0;points=[];autosize=1;strokeColor=none;fillColor=none;" vertex="1" parent="1">
          <mxGeometry x="-253" y="160" width="160" height="50" as="geometry" />
        </mxCell>
        <mxCell id="vsVX-z01l6uyjI2hk9Wb-99" value="" style="rounded=0;whiteSpace=wrap;html=1;fillColor=#d5e8d4;strokeColor=#82b366;" vertex="1" parent="1">
          <mxGeometry x="-430" y="250" width="120" height="480" as="geometry" />
        </mxCell>
        <mxCell id="vsVX-z01l6uyjI2hk9Wb-88" value="" style="endArrow=none;dashed=1;html=1;strokeWidth=4;rounded=0;exitX=0;exitY=1;exitDx=0;exitDy=0;" edge="1" parent="1">
          <mxGeometry width="50" height="50" relative="1" as="geometry">
            <mxPoint x="-310" y="611.9999999999995" as="sourcePoint" />
            <mxPoint x="-640" y="612" as="targetPoint" />
            <Array as="points" />
          </mxGeometry>
        </mxCell>
        <mxCell id="vsVX-z01l6uyjI2hk9Wb-97" value="" style="rounded=0;whiteSpace=wrap;html=1;fillColor=#b1ecb2;strokeColor=#b85450;gradientColor=#e69e9e;gradientDirection=east;" vertex="1" parent="1">
          <mxGeometry x="-430" y="612" width="610" height="120" as="geometry" />
        </mxCell>
        <mxCell id="vsVX-z01l6uyjI2hk9Wb-95" value="&lt;font size=&quot;1&quot; style=&quot;&quot;&gt;&lt;i style=&quot;font-size: 27px;&quot;&gt;2: 1st update&lt;/i&gt;&lt;/font&gt;" style="text;html=1;align=center;verticalAlign=middle;resizable=0;points=[];autosize=1;strokeColor=none;fillColor=none;rotation=0;" vertex="1" parent="1">
          <mxGeometry x="-215" y="652" width="180" height="50" as="geometry" />
        </mxCell>
        <mxCell id="vsVX-z01l6uyjI2hk9Wb-100" value="" style="rounded=0;whiteSpace=wrap;html=1;fillColor=#D5E8D4;strokeColor=#6c8ebf;gradientColor=#D4E1F5;gradientDirection=east;" vertex="1" parent="1">
          <mxGeometry x="-430" y="237" width="610" height="375" as="geometry" />
        </mxCell>
        <mxCell id="vsVX-z01l6uyjI2hk9Wb-108" style="edgeStyle=orthogonalEdgeStyle;rounded=0;orthogonalLoop=1;jettySize=auto;html=1;strokeWidth=5;" edge="1" parent="1" source="vsVX-z01l6uyjI2hk9Wb-92">
          <mxGeometry relative="1" as="geometry">
            <mxPoint x="-430" y="730" as="targetPoint" />
            <Array as="points">
              <mxPoint x="-360" y="775" />
              <mxPoint x="-360" y="730" />
            </Array>
          </mxGeometry>
        </mxCell>
        <mxCell id="vsVX-z01l6uyjI2hk9Wb-92" value="&lt;font size=&quot;1&quot; style=&quot;&quot;&gt;&lt;i style=&quot;font-size: 27px;&quot;&gt;1: 1st insert&lt;/i&gt;&lt;/font&gt;" style="text;html=1;align=center;verticalAlign=middle;resizable=0;points=[];autosize=1;strokeColor=none;fillColor=none;rotation=1;" vertex="1" parent="1">
          <mxGeometry x="-205" y="750" width="160" height="50" as="geometry" />
        </mxCell>
        <mxCell id="vsVX-z01l6uyjI2hk9Wb-94" value="" style="endArrow=none;dashed=1;html=1;dashPattern=1 3;strokeWidth=4;rounded=0;" edge="1" parent="1">
          <mxGeometry width="50" height="50" relative="1" as="geometry">
            <mxPoint x="-310" y="60" as="sourcePoint" />
            <mxPoint x="-310" y="1090" as="targetPoint" />
          </mxGeometry>
        </mxCell>
        <mxCell id="vsVX-z01l6uyjI2hk9Wb-93" value="" style="endArrow=none;dashed=1;html=1;dashPattern=1 3;strokeWidth=4;rounded=0;" edge="1" parent="1">
          <mxGeometry width="50" height="50" relative="1" as="geometry">
            <mxPoint x="-430" y="70" as="sourcePoint" />
            <mxPoint x="-430" y="1090" as="targetPoint" />
          </mxGeometry>
        </mxCell>
        <mxCell id="vsVX-z01l6uyjI2hk9Wb-101" value="&lt;font size=&quot;1&quot; style=&quot;&quot;&gt;&lt;i style=&quot;font-size: 27px;&quot;&gt;3: 2nd insert&lt;/i&gt;&lt;/font&gt;" style="text;html=1;align=center;verticalAlign=middle;resizable=0;points=[];autosize=1;strokeColor=none;fillColor=none;rotation=0;" vertex="1" parent="1">
          <mxGeometry x="-205" y="420" width="170" height="50" as="geometry" />
        </mxCell>
        <mxCell id="vsVX-z01l6uyjI2hk9Wb-116" value="&lt;font style=&quot;font-size: 16px;&quot;&gt;2024-09-16 11:16:35&lt;/font&gt;" style="text;html=1;align=center;verticalAlign=middle;resizable=0;points=[];autosize=1;strokeColor=none;fillColor=none;" vertex="1" parent="1">
          <mxGeometry x="-695" y="-603" width="170" height="30" as="geometry" />
        </mxCell>
        <mxCell id="vsVX-z01l6uyjI2hk9Wb-117" value="§" style="endArrow=none;dashed=1;html=1;strokeWidth=4;rounded=0;exitX=0;exitY=1;exitDx=0;exitDy=0;" edge="1" parent="1">
          <mxGeometry width="50" height="50" relative="1" as="geometry">
            <mxPoint x="-310" y="-567.79" as="sourcePoint" />
            <mxPoint x="-640" y="-567.79" as="targetPoint" />
            <Array as="points" />
          </mxGeometry>
        </mxCell>
        <mxCell id="vsVX-z01l6uyjI2hk9Wb-120" value="" style="rounded=0;whiteSpace=wrap;html=1;fillColor=#f8cecc;strokeColor=#b85450;" vertex="1" parent="1">
          <mxGeometry x="-310" y="-570" width="490" height="102" as="geometry" />
        </mxCell>
        <mxCell id="vsVX-z01l6uyjI2hk9Wb-119" value="" style="endArrow=none;dashed=1;html=1;dashPattern=1 3;strokeWidth=4;rounded=0;" edge="1" parent="1">
          <mxGeometry width="50" height="50" relative="1" as="geometry">
            <mxPoint x="280" y="-568" as="sourcePoint" />
            <mxPoint x="-715" y="-567.88" as="targetPoint" />
          </mxGeometry>
        </mxCell>
        <mxCell id="vsVX-z01l6uyjI2hk9Wb-121" value="" style="rounded=0;whiteSpace=wrap;html=1;fillColor=#e1d5e7;strokeColor=#9673a6;" vertex="1" parent="1">
          <mxGeometry x="-310" y="-828" width="490" height="258" as="geometry" />
        </mxCell>
        <mxCell id="vsVX-z01l6uyjI2hk9Wb-122" value="&lt;font size=&quot;1&quot; style=&quot;&quot;&gt;&lt;i style=&quot;font-size: 27px;&quot;&gt;correction: update&lt;/i&gt;&lt;/font&gt;" style="text;html=1;align=center;verticalAlign=middle;resizable=0;points=[];autosize=1;strokeColor=none;fillColor=none;" vertex="1" parent="1">
          <mxGeometry x="-215" y="-544" width="240" height="50" as="geometry" />
        </mxCell>
        <mxCell id="vsVX-z01l6uyjI2hk9Wb-123" value="&lt;font size=&quot;1&quot; style=&quot;&quot;&gt;&lt;i style=&quot;font-size: 27px;&quot;&gt;correction: insert&lt;/i&gt;&lt;/font&gt;" style="text;html=1;align=center;verticalAlign=middle;resizable=0;points=[];autosize=1;strokeColor=none;fillColor=none;" vertex="1" parent="1">
          <mxGeometry x="-210" y="-710" width="220" height="50" as="geometry" />
        </mxCell>
        <mxCell id="vsVX-z01l6uyjI2hk9Wb-124" value="" style="rounded=0;whiteSpace=wrap;html=1;fillColor=#d5e8d4;strokeColor=#82b366;" vertex="1" parent="1">
          <mxGeometry x="875" y="-788" width="610" height="480" as="geometry" />
        </mxCell>
        <mxCell id="vsVX-z01l6uyjI2hk9Wb-125" value="" style="endArrow=classic;html=1;rounded=0;" edge="1" parent="1">
          <mxGeometry width="50" height="50" relative="1" as="geometry">
            <mxPoint x="785" y="-198" as="sourcePoint" />
            <mxPoint x="785" y="-768" as="targetPoint" />
          </mxGeometry>
        </mxCell>
        <mxCell id="vsVX-z01l6uyjI2hk9Wb-126" value="" style="endArrow=classic;html=1;rounded=0;" edge="1" parent="1">
          <mxGeometry width="50" height="50" relative="1" as="geometry">
            <mxPoint x="755" y="-228" as="sourcePoint" />
            <mxPoint x="1465" y="-228" as="targetPoint" />
          </mxGeometry>
        </mxCell>
        <mxCell id="vsVX-z01l6uyjI2hk9Wb-127" value="&lt;font style=&quot;font-size: 24px;&quot;&gt;Effective Time /&lt;/font&gt;&lt;div&gt;&lt;font style=&quot;font-size: 24px;&quot;&gt;Insertion Time&lt;/font&gt;&lt;/div&gt;" style="text;html=1;align=center;verticalAlign=middle;resizable=0;points=[];autosize=1;strokeColor=none;fillColor=none;" vertex="1" parent="1">
          <mxGeometry x="1355" y="-225" width="190" height="70" as="geometry" />
        </mxCell>
        <mxCell id="vsVX-z01l6uyjI2hk9Wb-128" value="&lt;font style=&quot;font-size: 24px;&quot;&gt;Asserted Time /&lt;/font&gt;&lt;div&gt;&lt;font style=&quot;font-size: 24px;&quot;&gt;Business Time&lt;/font&gt;&lt;/div&gt;" style="text;html=1;align=center;verticalAlign=middle;resizable=0;points=[];autosize=1;strokeColor=none;fillColor=none;" vertex="1" parent="1">
          <mxGeometry x="590" y="-791.88" width="190" height="70" as="geometry" />
        </mxCell>
        <mxCell id="vsVX-z01l6uyjI2hk9Wb-129" value="&lt;font style=&quot;font-size: 16px;&quot;&gt;2024-09-16 10:56:04&lt;/font&gt;" style="text;html=1;align=center;verticalAlign=middle;resizable=0;points=[];autosize=1;strokeColor=none;fillColor=none;rotation=90;" vertex="1" parent="1">
          <mxGeometry x="805" y="-160" width="170" height="30" as="geometry" />
        </mxCell>
        <mxCell id="vsVX-z01l6uyjI2hk9Wb-130" value="&lt;font style=&quot;font-size: 16px;&quot;&gt;2024-09-16 10:56:04&lt;/font&gt;" style="text;html=1;align=center;verticalAlign=middle;resizable=0;points=[];autosize=1;strokeColor=none;fillColor=none;" vertex="1" parent="1">
          <mxGeometry x="618" y="-338" width="170" height="30" as="geometry" />
        </mxCell>
        <mxCell id="vsVX-z01l6uyjI2hk9Wb-131" value="" style="endArrow=none;dashed=1;html=1;strokeWidth=4;rounded=0;exitX=0;exitY=1;exitDx=0;exitDy=0;" edge="1" parent="1" source="vsVX-z01l6uyjI2hk9Wb-124">
          <mxGeometry width="50" height="50" relative="1" as="geometry">
            <mxPoint x="1055" y="-368" as="sourcePoint" />
            <mxPoint x="665" y="-308" as="targetPoint" />
            <Array as="points" />
          </mxGeometry>
        </mxCell>
        <mxCell id="vsVX-z01l6uyjI2hk9Wb-132" value="" style="endArrow=none;dashed=1;html=1;strokeWidth=4;rounded=0;exitX=0;exitY=1;exitDx=0;exitDy=0;entryX=0.976;entryY=0.995;entryDx=0;entryDy=0;entryPerimeter=0;" edge="1" parent="1" source="vsVX-z01l6uyjI2hk9Wb-124" target="vsVX-z01l6uyjI2hk9Wb-129">
          <mxGeometry width="50" height="50" relative="1" as="geometry">
            <mxPoint x="885" y="-298" as="sourcePoint" />
            <mxPoint x="875" y="-158" as="targetPoint" />
            <Array as="points">
              <mxPoint x="875" y="-248" />
            </Array>
          </mxGeometry>
        </mxCell>
        <mxCell id="vsVX-z01l6uyjI2hk9Wb-133" value="" style="endArrow=none;dashed=1;html=1;strokeWidth=4;rounded=0;exitX=0;exitY=1;exitDx=0;exitDy=0;entryX=0.976;entryY=0.995;entryDx=0;entryDy=0;entryPerimeter=0;" edge="1" parent="1">
          <mxGeometry width="50" height="50" relative="1" as="geometry">
            <mxPoint x="995" y="-428.00000000000045" as="sourcePoint" />
            <mxPoint x="995" y="-101" as="targetPoint" />
          </mxGeometry>
        </mxCell>
        <mxCell id="vsVX-z01l6uyjI2hk9Wb-134" value="&lt;font style=&quot;font-size: 16px;&quot;&gt;2024-09-16 10:57:01&lt;/font&gt;" style="text;html=1;align=center;verticalAlign=middle;resizable=0;points=[];autosize=1;strokeColor=none;fillColor=none;rotation=90;" vertex="1" parent="1">
          <mxGeometry x="925" y="-160" width="170" height="30" as="geometry" />
        </mxCell>
        <mxCell id="vsVX-z01l6uyjI2hk9Wb-135" value="&lt;font style=&quot;font-size: 16px;&quot;&gt;2024-09-02 11:25:01&lt;/font&gt;" style="text;html=1;align=center;verticalAlign=middle;resizable=0;points=[];autosize=1;strokeColor=none;fillColor=none;" vertex="1" parent="1">
          <mxGeometry x="618" y="-458" width="170" height="30" as="geometry" />
        </mxCell>
        <mxCell id="vsVX-z01l6uyjI2hk9Wb-136" value="&lt;font style=&quot;font-size: 30px;&quot;&gt;Delete&lt;/font&gt;" style="text;html=1;align=center;verticalAlign=middle;resizable=0;points=[];autosize=1;strokeColor=none;fillColor=none;" vertex="1" parent="1">
          <mxGeometry x="1077" y="-880" width="110" height="50" as="geometry" />
        </mxCell>
        <mxCell id="vsVX-z01l6uyjI2hk9Wb-137" value="" style="rounded=0;whiteSpace=wrap;html=1;fillColor=#d5e8d4;strokeColor=#82b366;" vertex="1" parent="1">
          <mxGeometry x="875" y="-790" width="120" height="480" as="geometry" />
        </mxCell>
        <mxCell id="vsVX-z01l6uyjI2hk9Wb-138" value="" style="endArrow=none;dashed=1;html=1;strokeWidth=4;rounded=0;exitX=0;exitY=1;exitDx=0;exitDy=0;" edge="1" parent="1">
          <mxGeometry width="50" height="50" relative="1" as="geometry">
            <mxPoint x="995" y="-428.00000000000045" as="sourcePoint" />
            <mxPoint x="665" y="-428" as="targetPoint" />
            <Array as="points" />
          </mxGeometry>
        </mxCell>
        <mxCell id="vsVX-z01l6uyjI2hk9Wb-139" value="" style="rounded=0;whiteSpace=wrap;html=1;gradientDirection=east;fillColor=#f5f5f5;fontColor=#333333;strokeColor=#666666;glass=0;sketch=1;curveFitting=1;jiggle=2;shadow=1;perimeterSpacing=0;" vertex="1" parent="1">
          <mxGeometry x="875" y="-428" width="610" height="120" as="geometry" />
        </mxCell>
        <mxCell id="vsVX-z01l6uyjI2hk9Wb-140" value="&lt;font size=&quot;1&quot; style=&quot;&quot;&gt;&lt;i style=&quot;font-size: 27px;&quot;&gt;Delete&lt;/i&gt;&lt;/font&gt;" style="text;html=1;align=center;verticalAlign=middle;resizable=0;points=[];autosize=1;strokeColor=none;fillColor=none;rotation=0;" vertex="1" parent="1">
          <mxGeometry x="1130" y="-388" width="100" height="50" as="geometry" />
        </mxCell>
        <mxCell id="vsVX-z01l6uyjI2hk9Wb-141" value="" style="rounded=0;whiteSpace=wrap;html=1;fillColor=#D5E8D4;strokeColor=#6c8ebf;gradientColor=#D4E1F5;gradientDirection=east;" vertex="1" parent="1">
          <mxGeometry x="875" y="-803" width="610" height="375" as="geometry" />
        </mxCell>
        <mxCell id="vsVX-z01l6uyjI2hk9Wb-142" style="edgeStyle=orthogonalEdgeStyle;rounded=0;orthogonalLoop=1;jettySize=auto;html=1;strokeWidth=5;" edge="1" parent="1" source="vsVX-z01l6uyjI2hk9Wb-143">
          <mxGeometry relative="1" as="geometry">
            <mxPoint x="875" y="-310" as="targetPoint" />
            <Array as="points">
              <mxPoint x="945" y="-265" />
              <mxPoint x="945" y="-310" />
            </Array>
          </mxGeometry>
        </mxCell>
        <mxCell id="vsVX-z01l6uyjI2hk9Wb-143" value="&lt;font size=&quot;1&quot; style=&quot;&quot;&gt;&lt;i style=&quot;font-size: 27px;&quot;&gt;1: 1st insert&lt;/i&gt;&lt;/font&gt;" style="text;html=1;align=center;verticalAlign=middle;resizable=0;points=[];autosize=1;strokeColor=none;fillColor=none;rotation=1;" vertex="1" parent="1">
          <mxGeometry x="1100" y="-290" width="160" height="50" as="geometry" />
        </mxCell>
        <mxCell id="vsVX-z01l6uyjI2hk9Wb-144" value="" style="endArrow=none;dashed=1;html=1;dashPattern=1 3;strokeWidth=4;rounded=0;" edge="1" parent="1">
          <mxGeometry width="50" height="50" relative="1" as="geometry">
            <mxPoint x="995" y="-980" as="sourcePoint" />
            <mxPoint x="995" y="50" as="targetPoint" />
          </mxGeometry>
        </mxCell>
        <mxCell id="vsVX-z01l6uyjI2hk9Wb-145" value="" style="endArrow=none;dashed=1;html=1;dashPattern=1 3;strokeWidth=4;rounded=0;" edge="1" parent="1">
          <mxGeometry width="50" height="50" relative="1" as="geometry">
            <mxPoint x="875" y="-970" as="sourcePoint" />
            <mxPoint x="875" y="50" as="targetPoint" />
          </mxGeometry>
        </mxCell>
        <mxCell id="vsVX-z01l6uyjI2hk9Wb-146" value="&lt;font size=&quot;1&quot; style=&quot;&quot;&gt;&lt;i style=&quot;font-size: 27px;&quot;&gt;3: 2nd insert&lt;/i&gt;&lt;/font&gt;" style="text;html=1;align=center;verticalAlign=middle;resizable=0;points=[];autosize=1;strokeColor=none;fillColor=none;rotation=0;" vertex="1" parent="1">
          <mxGeometry x="1100" y="-620" width="170" height="50" as="geometry" />
        </mxCell>
      </root>
    </mxGraphModel>
  </diagram>
</mxfile>
